HIERARCHY
ROOT Hips
{
	OFFSET -3.958830 18.904000 13.208200
	CHANNELS 6 Xposition Yposition Zposition Zrotation Yrotation Xrotation 
	JOINT LHipJoint
	{
		OFFSET 0.000000 0.000000 0.000000
		CHANNELS 3 Zrotation Yrotation Xrotation
		JOINT LeftUpLeg
		{
			OFFSET 1.800000 -1.400000 0.085000
			CHANNELS 3 Zrotation Yrotation Xrotation
			JOINT LeftLeg
			{
				OFFSET 2.215000 -6.000000 0.000000
				CHANNELS 3 Zrotation Yrotation Xrotation
				JOINT LeftFoot
				{
					OFFSET 2.500000 -6.900000 0.000000
					CHANNELS 3 Zrotation Yrotation Xrotation
					JOINT LeftToeBase
					{
						OFFSET 0.200000 -0.500000 1.950000
						CHANNELS 3 Zrotation Yrotation Xrotation
						End Site
						{
							OFFSET 0.000000 0.000000 0.000000
						}
					}
				}
			}
		}
	}
	JOINT RHipJoint
	{
		OFFSET 0.000000 0.000000 0.000000
		CHANNELS 3 Zrotation Yrotation Xrotation
		JOINT RightUpLeg
		{
			OFFSET -1.800000 -1.400000 0.085000
			CHANNELS 3 Zrotation Yrotation Xrotation
			JOINT RightLeg
			{
				OFFSET -2.215000 -6.000000 0.000000
				CHANNELS 3 Zrotation Yrotation Xrotation
				JOINT RightFoot
				{
					OFFSET -2.500000 -6.900000 0.000000
					CHANNELS 3 Zrotation Yrotation Xrotation
					JOINT RightToeBase
					{
						OFFSET -0.200000 -0.500000 1.950000
						CHANNELS 3 Zrotation Yrotation Xrotation
						End Site
						{
							OFFSET 0.000000 0.000000 0.000000
						}
					}
				}
			}
		}
	}
	JOINT LowerBack
	{
		OFFSET 0.000000 0.000000 0.000000
		CHANNELS 3 Zrotation Yrotation Xrotation
		JOINT Spine
		{
			OFFSET -0.087000 1.940000 -0.288900
			CHANNELS 3 Zrotation Yrotation Xrotation
			JOINT Spine1
			{
				OFFSET 0.000000 1.950000 0.060000
				CHANNELS 3 Zrotation Yrotation Xrotation
				JOINT Neck
				{
					OFFSET 0.000000 0.000000 0.000000
					CHANNELS 3 Zrotation Yrotation Xrotation
					JOINT Neck1
					{
						OFFSET 0.000000 1.600000 0.340000
						CHANNELS 3 Zrotation Yrotation Xrotation
						JOINT Head
						{
							OFFSET 0.000000 1.667000 -0.240000
							CHANNELS 3 Zrotation Yrotation Xrotation
							End Site
							{
								OFFSET 0.000000 0.000000 0.000000
							}
						}
					}
				}
				JOINT LeftShoulder
				{
					OFFSET 0.000000 0.000000 0.000000
					CHANNELS 3 Zrotation Yrotation Xrotation
					JOINT LeftArm
					{
						OFFSET 2.700000 1.550000 -0.730000
						CHANNELS 3 Zrotation Yrotation Xrotation
						JOINT LeftForeArm
						{
							OFFSET 5.450000 0.000000 0.000000
							CHANNELS 3 Zrotation Yrotation Xrotation
							JOINT LeftHand
							{
								OFFSET 3.450000 0.000000 0.000000
								CHANNELS 3 Zrotation Yrotation Xrotation
								JOINT LeftHandIndex1
								{
									OFFSET 0.750000 0.000000 0.000000
									CHANNELS 3 Zrotation Yrotation Xrotation
									End Site
									{
										OFFSET 0.000000 0.000000 0.000000
									}
								}
							}
						}
					}
				}
				JOINT RightShoulder
				{
					OFFSET 0.000000 0.000000 0.000000
					CHANNELS 3 Zrotation Yrotation Xrotation
					JOINT RightArm
					{
						OFFSET -2.700000 1.550000 -0.730000
						CHANNELS 3 Zrotation Yrotation Xrotation
						JOINT RightForeArm
						{
							OFFSET -5.450000 0.000000 0.000000
							CHANNELS 3 Zrotation Yrotation Xrotation
							JOINT RightHand
							{
								OFFSET -3.450000 0.000000 0.000000
								CHANNELS 3 Zrotation Yrotation Xrotation
								JOINT RightHandIndex1
								{
									OFFSET -0.750000 0.000000 0.000000
									CHANNELS 3 Zrotation Yrotation Xrotation
									End Site
									{
										OFFSET 0.000000 0.000000 0.000000
									}
								}
							}
						}
					}
				}
			}
		}
	}
}
MOTION
Frames: 4
Frame Time: 0.016667
0.147180 15.804660 -0.982230 10.704234 -15.724983 -1.101690 -15.074357 13.882127 2.199095 7.936252 -0.565943 -5.843383 0.393330 4.381976 12.405248 -0.404739 3.936692 3.204606 0.403090 0.412860 0.285070 18.503397 -10.259003 3.184693 -2.153048 2.433564 -42.228880 -33.973746 5.962600 41.773000 -0.944049 -7.280517 1.642743 0.406500 0.091170 0.142830 -3.923761 -3.589351 -7.085503 14.652175 -10.241085 14.074726 -14.435816 -7.294491 7.618541 2.419775 -7.905510 -7.767740 -14.996746 2.632305 20.652797 -7.019730 2.066570 -12.803950 -8.893458 -1.209903 -1.566059 -28.729893 -24.832393 0.409369 55.751802 -59.692562 -29.596984 -3.575085 2.428808 0.073670 0.162010 -0.006930 0.084110 3.610046 1.996189 6.204558 33.055443 -10.229745 -9.364236 21.625443 50.498131 7.660189 1.855958 -2.073678 -0.078740 0.172120 -0.058630 -0.095560 
0.152280 15.761570 -0.966790 10.961536 -15.697450 -1.038300 -15.078831 13.836015 2.210297 7.982987 -0.511438 -5.450326 0.006916 4.430682 11.789727 -0.400530 3.961450 3.202845 0.420060 0.438290 0.283550 18.510433 -10.246295 3.172863 -2.263659 2.426311 -42.335564 -34.149378 6.104105 42.301527 -0.968131 -7.406202 1.601025 0.428700 0.103500 0.146380 -3.937106 -3.547766 -7.068983 14.709461 -10.365957 13.711283 -14.548375 -7.458450 7.532631 2.327177 -8.074132 -7.576129 -15.128910 2.757476 20.087779 -6.851000 1.918330 -12.788270 -9.019520 -0.714078 -1.733584 -28.041838 -24.191379 0.331379 55.670372 -60.791357 -29.950027 -3.572469 2.429335 0.058090 0.172250 -0.013690 0.095730 3.927681 1.611659 6.077130 30.792648 -10.508257 -8.502945 25.598185 51.115304 9.304998 1.849082 -2.133625 -0.075380 0.178320 -0.064340 -0.086730 
0.147830 15.682800 -0.942480 11.832477 -15.790768 -1.196534 -15.088371 13.764841 2.250640 7.745374 -0.355440 -4.549601 -0.672764 4.517963 10.723097 -0.386877 4.022496 3.200203 0.433880 0.460080 0.273790 18.518161 -10.238269 3.134695 -2.655088 2.296308 -42.377787 -34.677251 6.379745 42.593960 -0.989758 -7.560344 1.556121 0.455210 0.131520 0.146400 -3.948743 -3.482169 -7.049612 14.327836 -10.436375 13.195755 -15.044590 -7.647253 7.351275 2.188909 -8.295755 -7.333923 -15.312813 2.959329 19.324027 -6.590010 1.745870 -12.392320 -9.186187 -0.079812 -2.122116 -25.945691 -23.000687 0.035887 54.558631 -63.446338 -30.308213 -3.570497 2.434731 0.032790 0.194100 -0.035030 0.112340 4.379556 1.115960 6.085661 27.550277 -11.315442 -7.078279 33.773815 52.346082 12.840485 1.836338 -2.238718 -0.079240 0.190310 -0.067830 -0.075550 
0.135600 15.617980 -0.923830 12.470935 -16.202394 -1.710035 -15.078727 13.690420 2.301758 7.921413 -0.182343 -3.286335 -1.705619 4.769092 9.943071 -0.333970 4.145330 3.168937 0.426250 0.450490 0.264580 18.533250 -10.254834 3.121344 -2.726396 2.339806 -42.132732 -35.542676 6.888559 43.073918 -1.042821 -7.756671 1.501967 0.442430 0.130050 0.140720 -3.991970 -3.348218 -7.081105 14.162745 -10.407750 13.331140 -15.876171 -7.619090 7.380982 2.339620 -8.331935 -7.564472 -15.316102 2.796348 19.380938 -6.210610 1.505140 -12.432050 -9.010585 -0.334668 -2.284356 -23.384955 -21.184925 -0.930394 51.785218 -67.765540 -30.766245 -3.530919 2.447541 0.038700 0.182520 -0.032700 0.113520 3.914858 1.474868 6.651172 26.211280 -12.188133 -6.139904 43.177102 52.521565 16.709461 1.851494 -2.281917 -0.077370 0.190900 -0.066960 -0.070540 
